# xmcd CD database file generated by OrangeCD 6.3
#
# Track frame offsets:
#	182
#	19942
#	41650
#	64947
#	85665
#	100132
#	115930
#	135627
#	153250
#	181722
#	200110
#	221795
#	237015
#	258922
#
# Disc length: 3638 seconds
#
# Revision: 3
# Processed by: cddbd v1.5.2PL0 Copyright (c) Steve Scherf et al.
# Submitted via: OrangeCD 6.3
#
DISCID=bd0e340e
DTITLE=Clifton Chenier - Frenchin' The Blues
DYEAR=1995
DGENRE=Creole
TTITLE0=Tu Es Si Jolie
TTITLE1=Les Haricots Sont Pas Sales
TTITLE2=You're Fussing Too Much
TTITLE3=Pinetop's Boogie Woogie
TTITLE4=Marcher Plancher
TTITLE5=Here Little Girl
TTITLE6=Release Me
TTITLE7=Jambalaya
TTITLE8=I'm A Hog For You
TTITLE9=Louisiana Two Steps
TTITLE10=When You Going to Sing For Me?
TTITLE11=Who Who Who
TTITLE12=You Promised Me Love
TTITLE13=Black Girl
EXTD=
EXTT0=
EXTT1=
EXTT2=
EXTT3=
EXTT4=
EXTT5=
EXTT6=
EXTT7=
EXTT8=
EXTT9=
EXTT10=
EXTT11=
EXTT12=
EXTT13=
PLAYORDER=
